<svg xmlns="http://www.w3.org/2000/svg" width="44.59" height="41.804" viewBox="0 0 44.59 41.804">
  <g id="chat" transform="translate(0 -16)">
    <g id="Grupo_3" data-name="Grupo 3" transform="translate(0 16)">
      <path id="Trazado_5" data-name="Trazado 5" d="M22.208,16C9.962,16,0,24.79,0,35.6A18.26,18.26,0,0,0,5.094,48.089,7.944,7.944,0,0,1,3,55.573a1.307,1.307,0,0,0,.924,2.23,14.4,14.4,0,0,0,9.978-4.03,24.635,24.635,0,0,0,8.311,1.417c12.246,0,22.382-8.79,22.382-19.6S34.454,16,22.208,16ZM11.931,39.514A3.919,3.919,0,1,1,15.85,35.6,3.923,3.923,0,0,1,11.931,39.514Zm10.451,0A3.919,3.919,0,1,1,26.3,35.6,3.923,3.923,0,0,1,22.382,39.514Zm10.451,0A3.919,3.919,0,1,1,36.752,35.6,3.923,3.923,0,0,1,32.833,39.514Z" transform="translate(0 -16)" fill="#b9b9b9"/>
    </g>
  </g>
</svg>
