<svg id="dashboard" xmlns="http://www.w3.org/2000/svg" width="39.172" height="39.172" viewBox="0 0 39.172 39.172">
  <path id="Trazado_1" data-name="Trazado 1" d="M15.1,0H2.856A2.859,2.859,0,0,0,0,2.856V10.2a2.859,2.859,0,0,0,2.856,2.857H15.1A2.859,2.859,0,0,0,17.954,10.2V2.856A2.859,2.859,0,0,0,15.1,0Zm0,0" fill="#fff"/>
  <path id="Trazado_2" data-name="Trazado 2" d="M15.1,213.332H2.856A2.859,2.859,0,0,0,0,216.189v17.138a2.859,2.859,0,0,0,2.856,2.856H15.1a2.859,2.859,0,0,0,2.857-2.856V216.189A2.859,2.859,0,0,0,15.1,213.332Zm0,0" transform="translate(0 -197.01)" fill="#fff"/>
  <path id="Trazado_3" data-name="Trazado 3" d="M292.43,341.332H280.189a2.859,2.859,0,0,0-2.857,2.856v7.345a2.859,2.859,0,0,0,2.857,2.856H292.43a2.859,2.859,0,0,0,2.856-2.856v-7.345A2.859,2.859,0,0,0,292.43,341.332Zm0,0" transform="translate(-256.114 -315.217)" fill="#fff"/>
  <path id="Trazado_4" data-name="Trazado 4" d="M292.43,0H280.189a2.859,2.859,0,0,0-2.857,2.856V19.994a2.859,2.859,0,0,0,2.857,2.857H292.43a2.859,2.859,0,0,0,2.856-2.857V2.856A2.859,2.859,0,0,0,292.43,0Zm0,0" transform="translate(-256.114)" fill="#fff"/>
</svg>
