<svg xmlns="http://www.w3.org/2000/svg" width="37.508" height="38.516" viewBox="0 0 37.508 38.516">
  <path id="gear" d="M43.56,23.479l-3.54-2.768a12.882,12.882,0,0,0,0-2.908l3.543-2.77a1.736,1.736,0,0,0,.419-2.213L40.3,6.453a1.741,1.741,0,0,0-2.13-.767L34,7.365A14.294,14.294,0,0,0,31.49,5.909l-.64-4.433A1.706,1.706,0,0,0,29.145,0H21.763a1.7,1.7,0,0,0-1.695,1.464l-.642,4.445a14.823,14.823,0,0,0-2.5,1.457L12.739,5.685a1.706,1.706,0,0,0-2.114.753L6.939,12.815a1.724,1.724,0,0,0,.419,2.223l3.54,2.768a12.761,12.761,0,0,0,0,2.908L7.355,23.482a1.735,1.735,0,0,0-.42,2.213l3.682,6.368a1.74,1.74,0,0,0,2.13.767l4.173-1.679a14.36,14.36,0,0,0,2.508,1.457l.642,4.429a1.7,1.7,0,0,0,1.695,1.478h7.382a1.7,1.7,0,0,0,1.7-1.464l.642-4.445a14.852,14.852,0,0,0,2.5-1.457l4.189,1.683a1.708,1.708,0,0,0,2.114-.753l3.7-6.4A1.732,1.732,0,0,0,43.56,23.479Zm-18.106,3.8a8.024,8.024,0,1,1,8.024-8.024A8.024,8.024,0,0,1,25.454,27.282Z" transform="translate(-6.703 0)" fill="#fff"/>
</svg>
