<svg xmlns="http://www.w3.org/2000/svg" width="39.168" height="39.172" viewBox="0 0 39.168 39.172">
  <path id="home" d="M38.116,17.037l0,0L22.134,1.056a3.605,3.605,0,0,0-5.1,0L1.063,17.026l-.016.016a3.6,3.6,0,0,0,2.4,6.144q.055.005.111.005h.637V34.951a4.225,4.225,0,0,0,4.221,4.22h6.252a1.148,1.148,0,0,0,1.148-1.148V28.8a1.928,1.928,0,0,1,1.926-1.926h3.687A1.928,1.928,0,0,1,23.353,28.8v9.219A1.148,1.148,0,0,0,24.5,39.172h6.252a4.225,4.225,0,0,0,4.221-4.22V23.192h.591a3.607,3.607,0,0,0,2.552-6.155Zm0,0" transform="translate(0 0.001)" fill="#fff"/>
</svg>
